<svg width="663" height="165" viewBox="0 0 663 165" fill="none" xmlns="http://www.w3.org/2000/svg">
<g clip-path="url(#clip0_627_3426)">
<g clip-path="url(#clip1_627_3426)">
<g clip-path="url(#clip2_627_3426)">
<path d="M19.3927 162.972C102.15 162.985 432.061 163.023 663.122 162.852L768 0.27742C684.531 0.274637 574.935 0.320985 478.032 0.374004L478.273 0C353.05 0.105228 248.685 0.12109 248.685 0.12109L166.773 1.07238C132.695 1.45913 102.138 14.8594 83.1118 36.1923C79.9292 39.6936 77.0757 43.4152 74.5956 47.336L0 162.968C0 162.968 0.0341187 162.968 0.100525 162.968L0.0802002 163C0.0802002 163 6.91571 162.989 19.3927 162.972Z" fill="#1B74E4"/>
</g>
</g>
</g>
<defs>
<clipPath id="clip0_627_3426">
<rect width="663" height="165" fill="white" transform="matrix(-1 0 0 1 663 0)"/>
</clipPath>
<clipPath id="clip1_627_3426">
<rect width="663" height="227" fill="white" transform="matrix(-1 0 0 1 663 0)"/>
</clipPath>
<clipPath id="clip2_627_3426">
<rect width="663" height="227" fill="white" transform="matrix(-1 0 0 1 663 0)"/>
</clipPath>
</defs>
</svg>
