<svg width="663" height="228" viewBox="0 0 663 228" fill="none" xmlns="http://www.w3.org/2000/svg">
<g clip-path="url(#clip0_611_8439)">
<g clip-path="url(#clip1_611_8439)">
<g clip-path="url(#clip2_611_8439)">
<path d="M641.966 181.969C552.204 181.983 194.371 182.026 -56.2453 181.836L-170 1.30806C-79.4664 1.30497 39.4053 1.35643 144.51 1.41531L144.248 1C280.07 1.11685 393.267 1.13446 393.267 1.13446L482.112 2.1908C519.074 2.62026 552.218 17.5003 572.854 41.189C576.306 45.0769 579.401 49.2095 582.091 53.5633L663 181.965C663 181.965 662.963 181.965 662.891 181.965L662.913 182C662.913 182 655.499 181.988 641.966 181.969Z" fill="#1B74E4"/>
</g>
</g>
</g>
<defs>
<clipPath id="clip0_611_8439">
<rect width="663" height="227" fill="white" transform="translate(0 0.810547)"/>
</clipPath>
<clipPath id="clip1_611_8439">
<rect width="663" height="227" fill="white" transform="translate(0 0.810547)"/>
</clipPath>
<clipPath id="clip2_611_8439">
<rect width="663" height="227" fill="white" transform="translate(0 0.810547)"/>
</clipPath>
</defs>
</svg>
