<svg width="663" height="165" viewBox="0 0 663 165" fill="none" xmlns="http://www.w3.org/2000/svg">
<g clip-path="url(#clip0_627_3450)">
<g clip-path="url(#clip1_627_3450)">
<g clip-path="url(#clip2_627_3450)">
<path d="M19.3927 171.97C102.15 171.984 432.061 172.024 663.122 171.844L768 0.292737C684.531 0.289801 574.935 0.338708 478.032 0.394655L478.273 0C353.05 0.111038 248.685 0.127776 248.685 0.127776L166.773 1.13159C132.695 1.53969 102.138 15.6799 83.1118 38.1907C79.9292 41.8852 77.0757 45.8123 74.5956 49.9497L0 171.967C0 171.967 0.0341187 171.967 0.100525 171.967L0.0802002 172C0.0802002 172 6.91571 171.989 19.3927 171.97Z" fill="#1B74E4"/>
</g>
</g>
</g>
<defs>
<clipPath id="clip0_627_3450">
<rect width="663" height="165" fill="white" transform="matrix(-1 0 0 1 663 0)"/>
</clipPath>
<clipPath id="clip1_627_3450">
<rect width="663" height="227" fill="white" transform="matrix(-1 0 0 1 663 0)"/>
</clipPath>
<clipPath id="clip2_627_3450">
<rect width="663" height="227" fill="white" transform="matrix(-1 0 0 1 663 0)"/>
</clipPath>
</defs>
</svg>
