<svg width="21" height="22" viewBox="0 0 21 22" fill="none" xmlns="http://www.w3.org/2000/svg">
<path d="M20.2109 4.73153L15.6109 0.710693L14.3209 2.30444L18.9209 6.32528L20.2109 4.73153ZM6.09094 2.30444L4.81094 0.710693L0.210938 4.72111L1.50094 6.31486L6.09094 2.30444ZM10.7109 7.10653H9.21094V13.3565L13.9609 16.3253L14.7109 15.044L10.7109 12.5753V7.10653ZM10.2109 2.93986C5.24094 2.93986 1.21094 7.13778 1.21094 12.3149C1.21094 17.4919 5.23094 21.6899 10.2109 21.6899C15.1809 21.6899 19.2109 17.4919 19.2109 12.3149C19.2109 7.13778 15.1809 2.93986 10.2109 2.93986ZM10.2109 19.6065C6.34094 19.6065 3.21094 16.3461 3.21094 12.3149C3.21094 8.28361 6.34094 5.02319 10.2109 5.02319C14.0809 5.02319 17.2109 8.28361 17.2109 12.3149C17.2109 16.3461 14.0809 19.6065 10.2109 19.6065Z" fill="#49596E"/>
</svg>
