<svg width="24" height="25" viewBox="0 0 24 25" fill="none" xmlns="http://www.w3.org/2000/svg">
<g clip-path="url(#clip0_627_3548)">
<path d="M12.003 0.497883C10.3463 0.497883 8.78345 0.810461 7.31434 1.43562C5.86085 2.06078 4.591 2.91646 3.50479 4.00267C2.41858 5.08888 1.56289 6.36654 0.937735 7.83566C0.312578 9.28915 0 10.8442 0 12.5009C0 14.1576 0.312578 15.7126 0.937735 17.1661C1.56289 18.6352 2.41858 19.9129 3.50479 20.9991C4.591 22.0853 5.86085 22.941 7.31434 23.5662C8.78345 24.1913 10.3463 24.5039 12.003 24.5039C13.6597 24.5039 15.2148 24.1913 16.6682 23.5662C18.1217 22.941 19.3916 22.0853 20.4778 20.9991C21.564 19.9129 22.4197 18.6352 23.0448 17.1661C23.6856 15.7126 24.006 14.1576 24.006 12.5009C24.006 10.8442 23.6856 9.28915 23.0448 7.83566C22.4197 6.36654 21.564 5.08888 20.4778 4.00267C19.3916 2.91646 18.1217 2.06078 16.6682 1.43562C15.2148 0.810461 13.6597 0.497883 12.003 0.497883ZM17.5591 9.17193L11.8155 17.9632C11.8155 17.9632 11.8116 17.9632 11.8037 17.9632C11.7959 17.9632 11.792 17.9632 11.792 17.9632C11.7764 17.9945 11.7647 18.0218 11.7569 18.0453C11.749 18.0687 11.7373 18.0882 11.7217 18.1039C11.6904 18.1351 11.6592 18.1586 11.6279 18.1742C11.5967 18.1898 11.5654 18.2133 11.5341 18.2445C11.5341 18.2445 11.5302 18.2484 11.5224 18.2562C11.5146 18.2641 11.5029 18.268 11.4873 18.268C11.4404 18.2992 11.3935 18.3266 11.3466 18.35C11.2997 18.3735 11.2528 18.393 11.2059 18.4086C11.1903 18.4086 11.1708 18.4086 11.1473 18.4086C11.1239 18.4086 11.1043 18.4164 11.0887 18.4321C11.0575 18.4321 11.0184 18.4321 10.9715 18.4321C10.9246 18.4321 10.8855 18.4321 10.8543 18.4321C10.823 18.4321 10.7918 18.4282 10.7605 18.4203C10.7293 18.4125 10.698 18.4086 10.6667 18.4086C10.6355 18.393 10.6081 18.3774 10.5847 18.3617C10.5612 18.3461 10.5339 18.3383 10.5026 18.3383C10.4714 18.3227 10.444 18.3109 10.4206 18.3031C10.3971 18.2953 10.3776 18.2836 10.362 18.268C10.3307 18.2523 10.3112 18.2406 10.3034 18.2328C10.2956 18.225 10.2838 18.2133 10.2682 18.1976C10.2682 18.182 10.2643 18.1742 10.2565 18.1742C10.2487 18.1742 10.2369 18.1742 10.2213 18.1742L6.89235 15.0797C6.67355 14.8765 6.56024 14.6303 6.55243 14.3412C6.54461 14.0521 6.63448 13.7981 6.82202 13.5793C7.0252 13.3761 7.27136 13.2667 7.56049 13.2511C7.84963 13.2355 8.1036 13.3292 8.3224 13.5324L10.7371 15.783L15.8008 8.02321C15.9571 7.78877 16.1759 7.6403 16.4573 7.57778C16.7386 7.51527 17.0043 7.56215 17.2543 7.71844C17.4888 7.89036 17.6372 8.11698 17.6998 8.3983C17.7623 8.67962 17.7154 8.9375 17.5591 9.17193Z" fill="#1B74E4"/>
</g>
<defs>
<clipPath id="clip0_627_3548">
<rect width="23.91" height="25" fill="white" transform="matrix(1 0 0 -1 0 25)"/>
</clipPath>
</defs>
</svg>
