<svg width="24" height="26" viewBox="0 0 24 26" fill="none" xmlns="http://www.w3.org/2000/svg">
<g clip-path="url(#clip0_611_8556)">
<path d="M12.003 0.997883C10.3463 0.997883 8.78345 1.31046 7.31434 1.93562C5.86085 2.56078 4.591 3.41646 3.50479 4.50267C2.41858 5.58888 1.56289 6.86654 0.937735 8.33566C0.312578 9.78915 0 11.3442 0 13.0009C0 14.6576 0.312578 16.2126 0.937735 17.6661C1.56289 19.1352 2.41858 20.4129 3.50479 21.4991C4.591 22.5853 5.86085 23.441 7.31434 24.0662C8.78345 24.6913 10.3463 25.0039 12.003 25.0039C13.6597 25.0039 15.2148 24.6913 16.6682 24.0662C18.1217 23.441 19.3916 22.5853 20.4778 21.4991C21.564 20.4129 22.4197 19.1352 23.0448 17.6661C23.6856 16.2126 24.006 14.6576 24.006 13.0009C24.006 11.3442 23.6856 9.78915 23.0448 8.33566C22.4197 6.86654 21.564 5.58888 20.4778 4.50267C19.3916 3.41646 18.1217 2.56078 16.6682 1.93562C15.2148 1.31046 13.6597 0.997883 12.003 0.997883ZM17.5591 9.67193L11.8155 18.4632C11.8155 18.4632 11.8116 18.4632 11.8037 18.4632C11.7959 18.4632 11.792 18.4632 11.792 18.4632C11.7764 18.4945 11.7647 18.5218 11.7569 18.5453C11.749 18.5687 11.7373 18.5882 11.7217 18.6039C11.6904 18.6351 11.6592 18.6586 11.6279 18.6742C11.5967 18.6898 11.5654 18.7133 11.5341 18.7445C11.5341 18.7445 11.5302 18.7484 11.5224 18.7562C11.5146 18.7641 11.5029 18.768 11.4873 18.768C11.4404 18.7992 11.3935 18.8266 11.3466 18.85C11.2997 18.8735 11.2528 18.893 11.2059 18.9086C11.1903 18.9086 11.1708 18.9086 11.1473 18.9086C11.1239 18.9086 11.1043 18.9164 11.0887 18.9321C11.0575 18.9321 11.0184 18.9321 10.9715 18.9321C10.9246 18.9321 10.8855 18.9321 10.8543 18.9321C10.823 18.9321 10.7918 18.9282 10.7605 18.9203C10.7293 18.9125 10.698 18.9086 10.6667 18.9086C10.6355 18.893 10.6081 18.8774 10.5847 18.8617C10.5612 18.8461 10.5339 18.8383 10.5026 18.8383C10.4714 18.8227 10.444 18.8109 10.4206 18.8031C10.3971 18.7953 10.3776 18.7836 10.362 18.768C10.3307 18.7523 10.3112 18.7406 10.3034 18.7328C10.2956 18.725 10.2838 18.7133 10.2682 18.6976C10.2682 18.682 10.2643 18.6742 10.2565 18.6742C10.2487 18.6742 10.2369 18.6742 10.2213 18.6742L6.89235 15.5797C6.67355 15.3765 6.56024 15.1303 6.55243 14.8412C6.54461 14.5521 6.63448 14.2981 6.82202 14.0793C7.0252 13.8761 7.27136 13.7667 7.56049 13.7511C7.84963 13.7355 8.1036 13.8292 8.3224 14.0324L10.7371 16.283L15.8008 8.52321C15.9571 8.28877 16.1759 8.1403 16.4573 8.07778C16.7386 8.01527 17.0043 8.06215 17.2543 8.21844C17.4888 8.39036 17.6372 8.61698 17.6998 8.8983C17.7623 9.17962 17.7154 9.4375 17.5591 9.67193Z" fill="#1B74E4"/>
</g>
<defs>
<clipPath id="clip0_611_8556">
<rect width="23.91" height="25" fill="white" transform="matrix(1 0 0 -1 0 25.5)"/>
</clipPath>
</defs>
</svg>
