<svg width="24" height="26" viewBox="0 0 24 26" fill="none" xmlns="http://www.w3.org/2000/svg">
<g clip-path="url(#clip0_627_3465)">
<path d="M12.003 0.806477C10.3463 0.806477 8.78345 1.11905 7.31434 1.74421C5.86085 2.36937 4.591 3.22505 3.50479 4.31126C2.41858 5.39747 1.56289 6.67514 0.937735 8.14425C0.312578 9.59774 0 11.1528 0 12.8095C0 14.4662 0.312578 16.0212 0.937735 17.4747C1.56289 18.9438 2.41858 20.2215 3.50479 21.3077C4.591 22.3939 5.86085 23.2496 7.31434 23.8748C8.78345 24.4999 10.3463 24.8125 12.003 24.8125C13.6597 24.8125 15.2148 24.4999 16.6682 23.8748C18.1217 23.2496 19.3916 22.3939 20.4778 21.3077C21.564 20.2215 22.4197 18.9438 23.0448 17.4747C23.6856 16.0212 24.006 14.4662 24.006 12.8095C24.006 11.1528 23.6856 9.59774 23.0448 8.14425C22.4197 6.67514 21.564 5.39747 20.4778 4.31126C19.3916 3.22505 18.1217 2.36937 16.6682 1.74421C15.2148 1.11905 13.6597 0.806477 12.003 0.806477ZM17.5591 9.48053L11.8155 18.2718C11.8155 18.2718 11.8116 18.2718 11.8037 18.2718C11.7959 18.2718 11.792 18.2718 11.792 18.2718C11.7764 18.3031 11.7647 18.3304 11.7569 18.3538C11.749 18.3773 11.7373 18.3968 11.7217 18.4125C11.6904 18.4437 11.6592 18.4672 11.6279 18.4828C11.5967 18.4984 11.5654 18.5219 11.5341 18.5531C11.5341 18.5531 11.5302 18.557 11.5224 18.5648C11.5146 18.5727 11.5029 18.5766 11.4873 18.5766C11.4404 18.6078 11.3935 18.6352 11.3466 18.6586C11.2997 18.6821 11.2528 18.7016 11.2059 18.7172C11.1903 18.7172 11.1708 18.7172 11.1473 18.7172C11.1239 18.7172 11.1043 18.725 11.0887 18.7407C11.0575 18.7407 11.0184 18.7407 10.9715 18.7407C10.9246 18.7407 10.8855 18.7407 10.8543 18.7407C10.823 18.7407 10.7918 18.7368 10.7605 18.7289C10.7293 18.7211 10.698 18.7172 10.6667 18.7172C10.6355 18.7016 10.6081 18.686 10.5847 18.6703C10.5612 18.6547 10.5339 18.6469 10.5026 18.6469C10.4714 18.6313 10.444 18.6195 10.4206 18.6117C10.3971 18.6039 10.3776 18.5922 10.362 18.5766C10.3307 18.5609 10.3112 18.5492 10.3034 18.5414C10.2956 18.5336 10.2838 18.5219 10.2682 18.5062C10.2682 18.4906 10.2643 18.4828 10.2565 18.4828C10.2487 18.4828 10.2369 18.4828 10.2213 18.4828L6.89235 15.3883C6.67355 15.1851 6.56024 14.9389 6.55243 14.6498C6.54461 14.3607 6.63448 14.1067 6.82202 13.8879C7.0252 13.6847 7.27136 13.5753 7.56049 13.5597C7.84963 13.544 8.1036 13.6378 8.3224 13.841L10.7371 16.0916L15.8008 8.3318C15.9571 8.09737 16.1759 7.94889 16.4573 7.88638C16.7386 7.82386 17.0043 7.87075 17.2543 8.02704C17.4888 8.19896 17.6372 8.42558 17.6998 8.7069C17.7623 8.98822 17.7154 9.24609 17.5591 9.48053Z" fill="white"/>
</g>
<defs>
<clipPath id="clip0_627_3465">
<rect width="23.91" height="25" fill="white" transform="matrix(1 0 0 -1 0 25.5)"/>
</clipPath>
</defs>
</svg>
