<svg width="24" height="25" viewBox="0 0 24 25" fill="none" xmlns="http://www.w3.org/2000/svg">
<g clip-path="url(#clip0_627_3444)">
<path d="M12.003 0.306477C10.3463 0.306477 8.78345 0.619055 7.31434 1.24421C5.86085 1.86937 4.591 2.72505 3.50479 3.81126C2.41858 4.89747 1.56289 6.17514 0.937735 7.64425C0.312578 9.09774 0 10.6528 0 12.3095C0 13.9662 0.312578 15.5212 0.937735 16.9747C1.56289 18.4438 2.41858 19.7215 3.50479 20.8077C4.591 21.8939 5.86085 22.7496 7.31434 23.3748C8.78345 23.9999 10.3463 24.3125 12.003 24.3125C13.6597 24.3125 15.2148 23.9999 16.6682 23.3748C18.1217 22.7496 19.3916 21.8939 20.4778 20.8077C21.564 19.7215 22.4197 18.4438 23.0448 16.9747C23.6856 15.5212 24.006 13.9662 24.006 12.3095C24.006 10.6528 23.6856 9.09774 23.0448 7.64425C22.4197 6.17514 21.564 4.89747 20.4778 3.81126C19.3916 2.72505 18.1217 1.86937 16.6682 1.24421C15.2148 0.619055 13.6597 0.306477 12.003 0.306477ZM17.5591 8.98053L11.8155 17.7718C11.8155 17.7718 11.8116 17.7718 11.8037 17.7718C11.7959 17.7718 11.792 17.7718 11.792 17.7718C11.7764 17.8031 11.7647 17.8304 11.7569 17.8538C11.749 17.8773 11.7373 17.8968 11.7217 17.9125C11.6904 17.9437 11.6592 17.9672 11.6279 17.9828C11.5967 17.9984 11.5654 18.0219 11.5341 18.0531C11.5341 18.0531 11.5302 18.057 11.5224 18.0648C11.5146 18.0727 11.5029 18.0766 11.4873 18.0766C11.4404 18.1078 11.3935 18.1352 11.3466 18.1586C11.2997 18.1821 11.2528 18.2016 11.2059 18.2172C11.1903 18.2172 11.1708 18.2172 11.1473 18.2172C11.1239 18.2172 11.1043 18.225 11.0887 18.2407C11.0575 18.2407 11.0184 18.2407 10.9715 18.2407C10.9246 18.2407 10.8855 18.2407 10.8543 18.2407C10.823 18.2407 10.7918 18.2368 10.7605 18.2289C10.7293 18.2211 10.698 18.2172 10.6667 18.2172C10.6355 18.2016 10.6081 18.186 10.5847 18.1703C10.5612 18.1547 10.5339 18.1469 10.5026 18.1469C10.4714 18.1313 10.444 18.1195 10.4206 18.1117C10.3971 18.1039 10.3776 18.0922 10.362 18.0766C10.3307 18.0609 10.3112 18.0492 10.3034 18.0414C10.2956 18.0336 10.2838 18.0219 10.2682 18.0062C10.2682 17.9906 10.2643 17.9828 10.2565 17.9828C10.2487 17.9828 10.2369 17.9828 10.2213 17.9828L6.89235 14.8883C6.67355 14.6851 6.56024 14.4389 6.55243 14.1498C6.54461 13.8607 6.63448 13.6067 6.82202 13.3879C7.0252 13.1847 7.27136 13.0753 7.56049 13.0597C7.84963 13.044 8.1036 13.1378 8.3224 13.341L10.7371 15.5916L15.8008 7.8318C15.9571 7.59737 16.1759 7.44889 16.4573 7.38638C16.7386 7.32386 17.0043 7.37075 17.2543 7.52704C17.4888 7.69896 17.6372 7.92558 17.6998 8.2069C17.7623 8.48822 17.7154 8.74609 17.5591 8.98053Z" fill="white"/>
</g>
<defs>
<clipPath id="clip0_627_3444">
<rect width="23.91" height="25" fill="white" transform="matrix(1 0 0 -1 0 25)"/>
</clipPath>
</defs>
</svg>
