<svg width="22" height="22" viewBox="0 0 22 22" fill="none" xmlns="http://www.w3.org/2000/svg">
<g clip-path="url(#clip0_611_8458)">
<path d="M10.9999 0.00195312C8.82473 0.00195312 6.69839 0.646972 4.88978 1.85544C3.08117 3.06392 1.67154 4.78156 0.839128 6.79118C0.00671839 8.80079 -0.211078 11.0121 0.213281 13.1455C0.63764 15.2789 1.68509 17.2386 3.22319 18.7767C4.76128 20.3147 6.72093 21.3622 8.85432 21.7866C10.9877 22.2109 13.199 21.9931 15.2087 21.1607C17.2183 20.3283 18.9359 18.9187 20.1444 17.1101C21.3529 15.3015 21.9979 13.1751 21.9979 10.9999C21.9938 8.08432 20.8338 5.28929 18.7722 3.22765C16.7105 1.166 13.9155 0.00599416 10.9999 0.00195312ZM10.9999 20.5569C9.11021 20.5569 7.26293 19.9966 5.69167 18.9468C4.1204 17.897 2.89571 16.4048 2.17246 14.659C1.4492 12.9131 1.25986 10.992 1.62838 9.13862C1.9969 7.28519 2.90672 5.58265 4.2428 4.24627C5.57889 2.9099 7.28123 1.99972 9.13459 1.63081C10.9879 1.2619 12.9091 1.45083 14.655 2.17371C16.401 2.89659 17.8935 4.12096 18.9436 5.692C19.9938 7.26305 20.5545 9.1102 20.5549 10.9999C20.5522 13.5332 19.5447 15.962 17.7533 17.7533C15.962 19.5447 13.5332 20.5522 10.9999 20.5549V20.5569ZM14.9592 7.21682L12.0254 9.55898C11.7532 9.36407 11.431 9.25094 11.0967 9.2329C10.7625 9.21486 10.43 9.29266 10.1384 9.45715L6.19442 5.51315C6.10408 5.42268 5.9815 5.3718 5.85364 5.3717C5.72578 5.3716 5.60313 5.4223 5.51265 5.51265C5.42217 5.60299 5.37129 5.72557 5.3712 5.85343C5.3711 5.98128 5.4218 6.10394 5.51214 6.19442L9.45817 10.1404C9.31309 10.4019 9.2368 10.6959 9.23648 10.9949C9.23616 11.2939 9.31181 11.5881 9.45633 11.8498C9.60086 12.1115 9.80951 12.3323 10.0627 12.4913C10.3159 12.6503 10.6054 12.7424 10.9039 12.7589C11.2025 12.7753 11.5003 12.7157 11.7695 12.5856C12.0387 12.4554 12.2703 12.259 12.4428 12.0148C12.6153 11.7705 12.7229 11.4865 12.7555 11.1893C12.7881 10.892 12.7447 10.5914 12.6292 10.3156L15.562 7.97344C15.6618 7.89363 15.7258 7.77745 15.74 7.65045C15.7541 7.52345 15.7172 7.39604 15.6374 7.29625C15.5576 7.19646 15.4414 7.13245 15.3144 7.11832C15.1874 7.10419 15.06 7.14109 14.9602 7.22089L14.9592 7.21682ZM10.9999 11.7993C10.8409 11.7995 10.6854 11.7525 10.5532 11.6643C10.4209 11.5761 10.3177 11.4506 10.2568 11.3038C10.1959 11.1569 10.1799 10.9953 10.2108 10.8393C10.2418 10.6834 10.3183 10.5401 10.4308 10.4277C10.5432 10.3153 10.6865 10.2387 10.8424 10.2078C10.9984 10.1768 11.16 10.1928 11.3068 10.2537C11.4537 10.3147 11.5792 10.4178 11.6674 10.5501C11.7556 10.6824 11.8026 10.8379 11.8024 10.9969C11.8026 11.21 11.7183 11.4146 11.5678 11.5657C11.4174 11.7167 11.2131 11.8018 10.9999 11.8024V11.7993ZM10.5183 4.56916V2.86346C10.5183 2.80021 10.5307 2.73757 10.5549 2.67913C10.5791 2.62069 10.6146 2.5676 10.6593 2.52287C10.7041 2.47814 10.7572 2.44266 10.8156 2.41846C10.874 2.39425 10.9367 2.38179 10.9999 2.38179C11.0632 2.38179 11.1258 2.39425 11.1842 2.41846C11.2427 2.44266 11.2958 2.47814 11.3405 2.52287C11.3852 2.5676 11.4207 2.62069 11.4449 2.67913C11.4691 2.73757 11.4816 2.80021 11.4816 2.86346V4.57629C11.4816 4.70404 11.4308 4.82655 11.3405 4.91688C11.2502 5.00721 11.1277 5.05796 10.9999 5.05796C10.8722 5.05796 10.7497 5.00721 10.6593 4.91688C10.569 4.82655 10.5183 4.70404 10.5183 4.57629V4.56916ZM20.0457 10.9999C20.0457 11.1277 19.995 11.2502 19.9047 11.3405C19.8143 11.4308 19.6918 11.4816 19.5641 11.4816H17.8512C17.788 11.4816 17.7254 11.4691 17.6669 11.4449C17.6085 11.4207 17.5554 11.3852 17.5107 11.3405C17.4659 11.2958 17.4304 11.2427 17.4062 11.1842C17.382 11.1258 17.3696 11.0632 17.3696 10.9999C17.3696 10.9367 17.382 10.874 17.4062 10.8156C17.4304 10.7572 17.4659 10.7041 17.5107 10.6593C17.5554 10.6146 17.6085 10.5791 17.6669 10.5549C17.7254 10.5307 17.788 10.5182 17.8512 10.5182H19.5641C19.6918 10.5182 19.8143 10.569 19.9047 10.6593C19.995 10.7497 20.0457 10.8722 20.0457 10.9999ZM11.4816 17.8523V19.5651C11.4816 19.6928 11.4308 19.8154 11.3405 19.9057C11.2502 19.996 11.1277 20.0468 10.9999 20.0468C10.8722 20.0468 10.7497 19.996 10.6593 19.9057C10.569 19.8154 10.5183 19.6928 10.5183 19.5651V17.8523C10.5183 17.7245 10.569 17.602 10.6593 17.5117C10.7497 17.4213 10.8722 17.3706 10.9999 17.3706C11.1277 17.3706 11.2502 17.4213 11.3405 17.5117C11.4308 17.602 11.4816 17.7245 11.4816 17.8523ZM5.05898 10.9999C5.05898 11.1277 5.00824 11.2502 4.91791 11.3405C4.82758 11.4308 4.70506 11.4816 4.57731 11.4816H2.86347C2.80021 11.4816 2.73758 11.4691 2.67914 11.4449C2.6207 11.4207 2.5676 11.3852 2.52287 11.3405C2.47815 11.2958 2.44267 11.2427 2.41846 11.1842C2.39425 11.1258 2.3818 11.0632 2.3818 10.9999C2.3818 10.9367 2.39425 10.874 2.41846 10.8156C2.44267 10.7572 2.47815 10.7041 2.52287 10.6593C2.5676 10.6146 2.6207 10.5791 2.67914 10.5549C2.73758 10.5307 2.80021 10.5182 2.86347 10.5182H4.57731C4.70506 10.5182 4.82758 10.569 4.91791 10.6593C5.00824 10.7497 5.05898 10.8722 5.05898 10.9999Z" fill="#3C425B"/>
</g>
<defs>
<clipPath id="clip0_611_8458">
<rect width="22" height="22" fill="white"/>
</clipPath>
</defs>
</svg>
