<svg width="54" height="54" viewBox="0 0 54 54" fill="none" xmlns="http://www.w3.org/2000/svg">
<g clip-path="url(#clip0_217_379)">
<rect width="53" height="53" transform="translate(0 -0.230469)" fill="#1B74E4"/>
<path d="M41.8899 27.7291V24.6147L38.3503 23.7574C38.3503 23.7574 38.0207 21.8991 37.4267 21.3448L39.0948 19.5344C37.6853 20.3181 36.3265 21.1864 35.0263 22.1344C36.2253 24.2018 36.5924 26.6339 36.0556 28.9531C35.5187 31.2722 34.1166 33.3108 32.1246 34.6686C30.1327 36.0264 27.6948 36.6052 25.2897 36.2914C22.8846 35.9776 20.6861 34.7938 19.1259 32.9726C17.5658 31.1514 16.7566 28.8242 16.8574 26.4482C16.9582 24.0722 17.9617 21.8189 19.6708 20.1309C21.3799 18.4429 23.671 17.4422 26.0944 17.3252C28.5178 17.2082 30.8982 17.9834 32.7683 19.4985C34.2471 18.4274 35.7905 17.4446 37.3901 16.5556L37.2436 16.3204L34.3469 17.5526C34.3469 17.5526 32.809 16.2725 32.2434 16.121V12.7035L29.2002 12.0256L27.3042 14.7133C26.4153 14.6202 25.5183 14.6282 24.6312 14.7373L22.8411 12.0256L19.8426 13.2578V16.6234C19.8426 16.6234 18.0728 17.9035 17.8937 18.2823L14.6918 17.1259L12.922 19.8774L14.9969 22.3258C14.9969 22.3258 14.4111 24.1841 14.4355 24.8381L11.2051 25.6675V28.9573L14.6389 29.8904C14.6389 29.8904 15.2817 32.2272 15.4852 32.303L13.4509 34.7873L15.5787 37.2477L18.7847 36.0514C19.4139 36.6195 20.1432 37.0708 20.937 37.3833L20.8353 40.8765L23.785 41.674L25.8192 38.8348L28.3824 38.7112L30.2051 41.3989L33.1751 40.3142L33.2239 36.7493C33.9619 36.3157 34.6308 35.7783 35.2094 35.1542L38.3137 36.4342L39.9777 33.6708L37.8132 31.1426C38.2631 30.367 38.5182 29.4977 38.5578 28.6064L41.8899 27.7291Z" fill="white"/>
<path d="M42.675 17.3479C38.8461 18.9546 35.3124 21.1666 32.2148 23.8956C29.8744 26.084 27.9764 28.6856 26.6206 31.5639C26.5611 31.7007 26.4739 31.8241 26.3642 31.9268C26.1416 32.1455 25.8412 32.2712 25.5261 32.2777C25.1092 32.2438 24.7217 32.0539 24.4439 31.7474L19.9807 25.9812C19.8152 25.7727 19.712 25.5232 19.6825 25.2606C19.6531 24.998 19.6986 24.7326 19.8139 24.4938C19.8988 24.3018 20.0405 24.1393 20.2208 24.0272C20.4243 23.9437 20.643 23.9017 20.8636 23.9036C21.0601 23.9022 21.2543 23.9449 21.4314 24.0286C21.6084 24.1122 21.7635 24.2345 21.8848 24.3861L24.924 28.1744C25.0216 28.3419 25.103 28.4017 25.1762 28.4017C25.3186 28.4017 25.4041 28.1744 25.4041 28.1744C25.6646 27.7031 25.9498 27.2452 26.2585 26.8026C28.2398 24.0113 29.3383 22.8828 29.8143 22.4561L30.7338 21.6226C34.9651 17.7546 41.4829 14.8875 41.4829 14.8875C41.8036 14.7842 42.1381 14.7278 42.4756 14.72C43.448 14.72 43.6392 15.342 43.6392 15.342C44.16 16.8095 42.675 17.3479 42.675 17.3479Z" fill="white"/>
</g>
<rect x="0.5" y="0.5" width="52.2" height="52.2" rx="26.1" stroke="white"/>
<defs>
<clipPath id="clip0_217_379">
<rect width="53.2" height="53.2" rx="26.6" fill="white"/>
</clipPath>
</defs>
</svg>
