<svg width="17" height="13" viewBox="0 0 17 13" fill="none" xmlns="http://www.w3.org/2000/svg">
<path d="M15.2776 6.69756C15.2771 6.58032 15.2528 6.46439 15.2063 6.35679C15.1597 6.24919 15.0918 6.15216 15.0066 6.07156L10.0566 1.12156C9.8616 0.933562 9.6576 0.851562 9.4466 0.851562C8.9646 0.851562 8.6186 1.19056 8.6186 1.64956C8.61817 1.76027 8.63989 1.86994 8.68248 1.97212C8.72507 2.07431 8.78767 2.16694 8.8666 2.24456L10.5616 3.96256L12.7466 5.95856L10.9986 5.85356H1.8686C1.3636 5.85356 1.0166 6.19956 1.0166 6.69756C1.0166 7.18756 1.3636 7.53356 1.8686 7.53356H10.9986L12.7466 7.42756L10.5616 9.42456L8.8666 11.1416C8.78767 11.2192 8.72507 11.3118 8.68248 11.414C8.63989 11.5162 8.61817 11.6259 8.6186 11.7366C8.6186 12.1966 8.9646 12.5356 9.4466 12.5356C9.671 12.5323 9.88496 12.4403 10.0416 12.2796L15.0066 7.31456C15.0908 7.23512 15.1582 7.13956 15.2047 7.03357C15.2513 6.92758 15.2761 6.81332 15.2776 6.69756Z" fill="white"/>
</svg>
