<svg width="21" height="22" viewBox="0 0 21 22" fill="none" xmlns="http://www.w3.org/2000/svg">
<path d="M20.2109 4.73177L15.6109 0.710938L14.3209 2.30469L18.9209 6.32552L20.2109 4.73177ZM6.09094 2.30469L4.81094 0.710938L0.210938 4.72135L1.50094 6.3151L6.09094 2.30469ZM10.7109 7.10677H9.21094V13.3568L13.9609 16.3255L14.7109 15.0443L10.7109 12.5755V7.10677ZM10.2109 2.9401C5.24094 2.9401 1.21094 7.13802 1.21094 12.3151C1.21094 17.4922 5.23094 21.6901 10.2109 21.6901C15.1809 21.6901 19.2109 17.4922 19.2109 12.3151C19.2109 7.13802 15.1809 2.9401 10.2109 2.9401ZM10.2109 19.6068C6.34094 19.6068 3.21094 16.3464 3.21094 12.3151C3.21094 8.28385 6.34094 5.02344 10.2109 5.02344C14.0809 5.02344 17.2109 8.28385 17.2109 12.3151C17.2109 16.3464 14.0809 19.6068 10.2109 19.6068Z" fill="#49596E"/>
</svg>
